<?xml version="1.0" encoding="UTF-8" standalone="no"?>
<svg width="220px" height="58px" viewBox="0 0 220 58" version="1.1" xmlns="http://www.w3.org/2000/svg" xmlns:xlink="http://www.w3.org/1999/xlink">
    <defs>
        <linearGradient x1="50.0215889%" y1="99.9981202%" x2="50.0215889%" y2="0.000234973448%" id="linearGradient-1">
            <stop stop-color="#1A1919" offset="0%"></stop>
            <stop stop-color="#FFFFFF" offset="58.69%"></stop>
            <stop stop-color="#1A1919" offset="100%"></stop>
        </linearGradient>
    </defs>
    <g id="Welcome" stroke="none" stroke-width="1" fill="none" fill-rule="evenodd">
        <g id="Logo">
            <rect id="background-2" fill="#1A1918" transform="translate(110.000000, 29.000000) scale(1, -1) translate(-110.000000, -29.000000) " x="0" y="0" width="220" height="58"></rect>
            <g id="logo-white-on-blue-2" transform="translate(0.000000, -1.000000)">
                <g id="Group" transform="translate(0.000000, 1.000000)">
                    <g transform="translate(127.226411, 1.305595)" fill="#FFFFFF">
                        <path d="M3.87085172,13.8680343 C2.37335764,13.8680343 2.11964064,12.3522381 2.10272617,11.4474605 L2.09821565,11.2137589 L0.490213724,11.2137589 L0.494724248,11.4579052 C0.529680812,13.9816211 1.80277631,15.6123098 3.73666362,15.6123098 C5.78895219,15.6123098 7.01355955,14.2022668 7.01355955,11.8365279 C7.01355955,9.28670008 5.51832073,8.11296982 4.19899236,7.07893826 C3.1266152,6.23813482 2.20195771,5.51091818 2.20195771,4.21185076 C2.20195771,3.26137731 2.77930483,2.62555235 3.63743208,2.62555235 C4.63087507,2.62555235 5.1653722,3.36974173 5.27362479,4.90251073 L5.28941162,5.12185075 L6.89064776,5.12185075 L6.87937145,4.87248203 C6.77562939,2.37357244 5.59499964,0.8799713 3.72087678,0.8799713 C1.86817891,0.8799713 0.626657085,2.27304159 0.626657085,4.34763268 C0.626657085,6.56192248 2.05987619,7.72259679 3.32733353,8.74618358 C4.41324227,9.62615488 5.43938655,10.4578192 5.43938655,11.8195552 C5.43825892,13.1199282 4.86880523,13.8680343 3.87085172,13.8680343 L3.87085172,13.8680343 Z" id="Shape"></path>
                        <path d="M14.6803233,10.5687948 C14.6431115,13.4907173 13.7353684,13.8680343 12.9471543,13.8680343 C11.7665246,13.8680343 10.9805657,12.9110329 10.9805657,8.24614055 C10.9805657,3.58124818 11.7665246,2.62555235 12.9471543,2.62555235 C13.5267567,2.62555235 14.3217366,2.9245337 14.5179444,5.51875176 L14.5337313,5.73678619 L16.2409647,5.73678619 L16.2206674,5.48088949 C15.9669504,1.68030128 14.3003116,0.881276895 12.9482819,0.881276895 C10.475387,0.881276895 9.27445987,3.291406 9.27445987,8.24744614 C9.27445987,13.2034863 10.4742593,15.6136154 12.9482819,15.6136154 C15.0998021,15.6136154 16.3548555,13.7779483 16.3886844,10.5753227 L16.3909397,10.3337876 L14.6859614,10.3337876 L14.6803233,10.5687948 L14.6803233,10.5687948 Z" id="Shape"></path>
                        <path d="M22.4034686,15.6123098 C24.7861531,15.6123098 25.9961012,13.1342897 25.9961012,8.24614055 C25.9961012,3.35799137 24.7872807,0.8799713 22.4034686,0.8799713 C20.0196565,0.8799713 18.8130912,3.35668577 18.8130912,8.24614055 C18.8142189,13.1342897 20.0207841,15.6123098 22.4034686,15.6123098 L22.4034686,15.6123098 Z M22.4034686,2.62685794 C23.2142353,2.62685794 24.2888678,3.20915349 24.2888678,8.24744614 C24.2888678,13.2857388 23.2142353,13.8693399 22.4034686,13.8693399 C21.5949571,13.8693399 20.5203247,13.2857388 20.5203247,8.24744614 C20.5203247,3.20915349 21.5960847,2.62685794 22.4034686,2.62685794 L22.4034686,2.62685794 Z" id="Shape"></path>
                        <path d="M30.1649534,15.4190817 L31.8721868,15.4190817 L31.8721868,2.81747487 L34.3281673,2.81747487 L34.3281673,1.07319942 L27.7089728,1.07319942 L27.7089728,2.81747487 L30.1649534,2.81747487 L30.1649534,15.4190817 Z" id="Shape"></path>
                        <path d="M41.9746337,13.6735006 L38.0910722,13.6735006 L38.0910722,1.07319942 L36.3872217,1.07319942 L36.3872217,15.4190817 L41.9746337,15.4190817 L41.9746337,13.6735006 Z" id="Shape"></path>
                        <path d="M45.8176004,1.07319942 L43.0887332,15.4177761 L44.8083706,15.4177761 L45.5221611,11.3077618 L48.2374967,11.3077618 L48.9512872,15.4177761 L50.6709246,15.4177761 L47.9420574,1.07319942 L45.8176004,1.07319942 L45.8176004,1.07319942 Z M47.9713758,9.56218071 L45.788282,9.56218071 L46.8809566,3.43893828 L47.9713758,9.56218071 L47.9713758,9.56218071 Z" id="Shape"></path>
                        <path d="M54.2376217,4.39071733 L57.5855584,15.259799 L57.6340466,15.4190817 L59.3796195,15.4190817 L59.3796195,1.07319942 L57.6735137,1.07319942 L57.6735137,10.2345623 L54.9074346,1.07319942 L52.5303883,1.07319942 L52.5303883,15.4190817 L54.2376217,15.4190817 L54.2376217,4.39071733 Z" id="Shape"></path>
                        <path d="M64.6682093,1.07319942 L62.2392919,1.07319942 L62.2392919,15.4190817 L64.6682093,15.4190817 C67.612454,15.4190817 68.9227614,13.2074031 68.9227614,8.24744614 C68.9227614,3.28618362 67.612454,1.07319942 64.6682093,1.07319942 L64.6682093,1.07319942 Z M63.9453978,2.81747487 L64.4370449,2.81747487 C66.2389994,2.81747487 67.2166555,3.68308462 67.2166555,8.24614055 C67.2166555,12.8091965 66.2389994,13.672195 64.4370449,13.672195 L63.9453978,13.672195 L63.9453978,2.81747487 L63.9453978,2.81747487 Z" id="Shape"></path>
                        <path d="M72.5244151,6.23682923 L73.5697291,3.32404589 L73.5877712,1.07319942 L71.7790509,1.07319942 L71.7790509,3.35538018 L72.3721849,3.35538018 L71.6099062,6.23682923 L72.5244151,6.23682923 Z" id="Shape"></path>
                        <path d="M79.9149092,7.08024385 C78.8447873,6.23944042 77.9178745,5.51222378 77.9178745,4.21315636 C77.9178745,3.2626829 78.4952216,2.62685794 79.3533489,2.62685794 C80.3467919,2.62685794 80.8835443,3.37104732 80.9895416,4.90381632 L81.0053284,5.12315635 L82.6065646,5.12315635 L82.5975435,4.87378763 C82.4938015,2.37487803 81.3109165,0.881276895 79.4367936,0.881276895 C77.586351,0.881276895 76.3448292,2.27434719 76.3448292,4.34893828 C76.3448292,6.56322808 77.7780483,7.72390239 79.0432504,8.74748918 C80.1291591,9.62746048 81.1553034,10.4591247 81.1553034,11.8208608 C81.1553034,13.1199282 80.584722,13.8680343 79.5867685,13.8680343 C78.0892745,13.8680343 77.8355575,12.3522381 77.818643,11.4474605 L77.8118772,11.2137589 L76.2083858,11.2137589 L76.2106411,11.4579052 C76.2455976,13.9816211 77.5209484,15.6123098 79.4525804,15.6123098 C81.504869,15.6123098 82.7294764,14.2022668 82.7294764,11.8365279 C82.7294764,9.28670008 81.2342375,8.11427541 79.9149092,7.08024385 L79.9149092,7.08024385 Z" id="Shape"></path>
                        <path d="M2.46807865,35.0970155 L4.17418448,35.0970155 L4.17418448,22.4941031 L6.63016498,22.4941031 L6.63016498,20.7511333 L0.0120981437,20.7511333 L0.0120981437,22.4941031 L2.46807865,22.4941031 L2.46807865,35.0970155 Z" id="Shape"></path>
                        <path d="M15.5407058,27.9227688 C15.5407058,23.0359252 14.3318853,20.5565996 11.9503284,20.5565996 C9.56764396,20.5565996 8.3576958,23.0346196 8.3576958,27.9227688 C8.3576958,32.810918 9.56651632,35.2876325 11.9503284,35.2876325 C14.3318853,35.2863269 15.5407058,32.8096124 15.5407058,27.9227688 L15.5407058,27.9227688 Z M11.9514561,22.3021806 C12.7599676,22.3021806 13.8346,22.8844762 13.8346,27.9227688 C13.8346,32.9610615 12.7599676,33.5420514 11.9514561,33.5420514 C11.1406893,33.5420514 10.0660569,32.9623671 10.0660569,27.9227688 C10.0660569,22.8844762 11.1406893,22.3021806 11.9514561,22.3021806 L11.9514561,22.3021806 Z" id="Shape"></path>
                        <path d="M27.6063584,20.7511333 L25.9915907,20.7511333 L24.7951741,30.5104589 L23.1217696,20.7511333 L21.7189965,20.7511333 L20.1019736,30.5235149 L18.8164741,20.7511333 L17.2017064,20.7511333 L19.2585055,35.0970155 L20.6973628,35.0970155 L22.4372975,25.0817932 L24.1772323,35.0970155 L25.6149619,35.0970155 L27.568019,21.0266139 L27.6063584,20.7511333 Z" id="Shape"></path>
                        <path d="M36.3015217,20.7511333 L34.5942883,20.7511333 L34.5942883,29.909885 L31.8282092,20.7511333 L29.4511629,20.7511333 L29.4511629,35.0970155 L31.1583963,35.0970155 L31.1583963,24.0673456 L34.506333,34.9377329 L34.5548212,35.0970155 L36.3015217,35.0970155 L36.3015217,20.7511333 Z" id="Shape"></path>
                        <path d="M42.3647941,26.7568721 C41.2946722,25.9160687 40.3677594,25.1901576 40.3677594,23.888479 C40.3677594,22.9406168 40.9451065,22.3021806 41.8032338,22.3021806 C42.7966768,22.3021806 43.3334292,23.04637 43.4394265,24.5804446 L43.4552133,24.8010902 L45.0564495,24.8010902 L45.0474284,24.5504159 C44.9436863,22.0502007 43.7608013,20.5565996 41.8866785,20.5565996 C40.0362359,20.5565996 38.794714,21.9496699 38.794714,24.0229554 C38.794714,26.2398563 40.2279332,27.3992251 41.4931352,28.4241175 C42.579044,29.3027832 43.6051882,30.1331418 43.6051882,31.4935722 C43.6051882,32.7965564 43.0346069,33.5407458 42.0366534,33.5407458 C40.5391593,33.5407458 40.2854423,32.0262552 40.2685279,31.1240887 L40.2640173,30.8903872 L38.6582707,30.8903872 L38.6605259,31.1332279 C38.6954825,33.6582494 39.9708333,35.2863269 41.9024653,35.2863269 C43.9547539,35.2863269 45.1793612,33.878895 45.1793612,31.5144618 C45.1793612,28.9646339 43.6829948,27.7922093 42.3647941,26.7568721 L42.3647941,26.7568721 Z" id="Shape"></path>
                        <path d="M3.85280962,40.4251504 L0.826247787,40.4251504 L0.826247787,54.7723382 L2.53348125,54.7723382 L2.53348125,48.5093971 L3.85280962,48.5093971 C5.88141794,48.5093971 7.24246866,46.8852364 7.24246866,44.4659681 C7.24246866,42.0506166 5.88141794,40.4251504 3.85280962,40.4251504 L3.85280962,40.4251504 Z M2.53348125,42.1707314 L3.68704785,42.1707314 C4.91391047,42.1707314 5.53749046,42.9449495 5.53749046,44.4672737 C5.53749046,45.9935148 4.91391047,46.7651216 3.68704785,46.7651216 L2.53348125,46.7651216 L2.53348125,42.1707314 L2.53348125,42.1707314 Z" id="Shape"></path>
                        <path d="M11.0414578,40.4251504 L8.31259056,54.7723382 L10.0299727,54.7723382 L10.7437632,50.6610183 L13.4613541,50.6610183 L14.1751446,54.7723382 L15.8925267,54.7723382 L13.1636595,40.4251504 L11.0414578,40.4251504 L11.0414578,40.4251504 Z M13.1929779,48.9141317 L11.0121394,48.9141317 L12.1025586,42.7921948 L13.1929779,48.9141317 L13.1929779,48.9141317 Z" id="Shape"></path>
                        <path d="M24.5053729,44.2570729 C24.5053729,41.9278907 23.1353012,40.4238448 21.0119718,40.4238448 L17.9200074,40.4238448 L17.9200074,54.7710326 L19.6272409,54.7710326 L19.6272409,48.2691675 L20.9679942,48.2091101 L22.88835,54.7710326 L24.6857939,54.7710326 L22.6335053,47.796542 C23.8242838,47.2207744 24.5053729,45.9412909 24.5053729,44.2570729 L24.5053729,44.2570729 Z M19.6261132,42.1707314 L20.5485155,42.1707314 C22.4136173,42.1707314 22.7970118,43.0350356 22.7970118,44.3354086 C22.7970118,45.6318648 22.4136173,46.4948634 20.5485155,46.4948634 L19.6261132,46.4948634 L19.6261132,42.1707314 L19.6261132,42.1707314 Z" id="Shape"></path>
                        <path d="M26.1877985,42.1707314 L28.643779,42.1707314 L28.643779,54.7723382 L30.3498848,54.7723382 L30.3498848,42.1707314 L32.8058654,42.1707314 L32.8058654,40.4251504 L26.1877985,40.4251504 L26.1877985,42.1707314 Z" id="Shape"></path>
                        <path d="M39.8422833,49.5891245 L37.0762043,40.4251504 L34.7002856,40.4251504 L34.7002856,54.7723382 L36.4063914,54.7723382 L36.4063914,43.7426683 L39.7543281,54.6156668 L39.8028162,54.7723382 L41.5495168,54.7723382 L41.5495168,40.4251504 L39.8422833,40.4251504 L39.8422833,49.5891245 Z" id="Shape"></path>
                        <path d="M46.115295,48.1647199 L49.2004937,48.1647199 L49.2004937,46.4191389 L46.115295,46.4191389 L46.115295,42.1707314 L50.2954235,42.1707314 L50.2954235,40.4251504 L44.4080616,40.4251504 L44.4080616,54.7723382 L50.4950142,54.7723382 L50.4950142,53.0254516 L46.115295,53.0254516 L46.115295,48.1647199 Z" id="Shape"></path>
                        <path d="M59.6028904,44.2570729 C59.6028904,41.9278907 58.2328187,40.4238448 56.1117446,40.4238448 L53.0197802,40.4238448 L53.0197802,54.7710326 L54.7247584,54.7710326 L54.7247584,48.2691675 L56.0655117,48.2091101 L57.9881227,54.7710326 L59.7855667,54.7710326 L57.7310228,47.796542 C58.9240565,47.2207744 59.6028904,45.9412909 59.6028904,44.2570729 L59.6028904,44.2570729 Z M54.7236307,42.1707314 L55.646033,42.1707314 C57.5111348,42.1707314 57.8945294,43.0350356 57.8945294,44.3354086 C57.8945294,45.6318648 57.5111348,46.4948634 55.646033,46.4948634 L54.7236307,46.4948634 L54.7236307,42.1707314 L54.7236307,42.1707314 Z" id="Shape"></path>
                        <path d="M65.7687772,46.4321948 C64.6964001,45.5900858 63.7694873,44.8654803 63.7694873,43.5651073 C63.7694873,42.6146339 64.3468344,41.9788089 65.2049617,41.9788089 C66.1984047,41.9788089 66.7351571,42.7243039 66.8411544,44.2570729 L66.8569412,44.4751073 L68.4581774,44.4751073 L68.4491563,44.2257386 C68.3454142,41.726829 67.1625292,40.2332278 65.2884064,40.2332278 C63.4379638,40.2332278 62.1964419,41.6249925 62.1964419,43.6995836 C62.1964419,45.9138734 63.6296611,47.0771589 64.8948631,48.0994401 C65.9807719,48.980717 67.0069162,49.8110757 67.0069162,51.1715061 C67.0069162,52.4718791 66.4363348,53.2186797 65.4383813,53.2186797 C63.9408872,53.2186797 63.6871702,51.704189 63.6702558,50.7994114 L63.6657452,50.5657098 L62.0599986,50.5657098 L62.0622538,50.8111618 C62.0972104,53.3322665 63.3725612,54.9642607 65.3064485,54.9642607 C67.3564818,54.9642607 68.5810891,53.5542177 68.5810891,51.1897844 C68.5822168,48.638651 67.0858503,47.4662264 65.7687772,46.4321948 L65.7687772,46.4321948 Z" id="Shape"></path>
                        <path d="M75.981732,46.4191389 L72.8784912,46.4191389 L72.8784912,40.4251504 L71.1712577,40.4251504 L71.1712577,54.7723382 L72.8784912,54.7723382 L72.8784912,48.1647199 L75.981732,48.1647199 L75.981732,54.7723382 L77.6889654,54.7723382 L77.6889654,40.4251504 L75.981732,40.4251504 L75.981732,46.4191389 Z" id="Shape"></path>
                        <rect id="Rectangle-path" x="80.8136312" y="40.4251504" width="1.70723346" height="14.3471879"></rect>
                        <path d="M88.5029475,40.4251504 L85.4763857,40.4251504 L85.4763857,54.7723382 L87.1836192,54.7723382 L87.1836192,48.5093971 L88.5029475,48.5093971 C90.5315558,48.5093971 91.8948618,46.8852364 91.8948618,44.4659681 C91.8937342,42.0506166 90.5304282,40.4251504 88.5029475,40.4251504 L88.5029475,40.4251504 Z M87.1836192,42.1707314 L88.3371858,42.1707314 C89.5663036,42.1707314 90.1876284,42.9449495 90.1876284,44.4672737 C90.1876284,45.9935148 89.5663036,46.7651216 88.3371858,46.7651216 L87.1836192,46.7651216 L87.1836192,42.1707314 L87.1836192,42.1707314 Z" id="Shape"></path>
                    </g>
                    <path d="M16.6021125,14.8746484 C16.2807376,10.2698134 14.1653017,8.93288373 12.370113,8.93288373 C9.80700754,8.93288373 8.39521343,10.8638593 8.39521343,14.2009612 C8.39521343,23.3362122 24.5530392,27.7164847 24.5530392,42.2660399 C24.5530392,51.1023096 19.4234454,56.0009035 11.9855908,56.0009035 C4.61201114,56.0009035 0.380011676,49.171334 0.0597644475,41.1536726 L7.6250414,39.8898563 C7.94528862,45.3106884 9.80813518,47.9819365 12.370113,47.9819365 C15.1282986,47.9819365 16.9866347,46.2729122 16.9866347,43.0833426 C16.9866347,32.4662408 0.828808847,29.6448492 0.828808847,14.2766857 C0.828808847,5.73939738 5.31565293,0.91391678 13.1391574,0.91391678 C19.6151427,0.91391678 23.46262,6.33474888 24.168517,13.904591 L16.6021125,14.8746484 L16.6021125,14.8746484 Z M50.4017266,9.67446191 L42.7067721,9.67446191 L42.7067721,1.65680056 L66.0464803,1.65680056 L66.0464803,9.67576751 L58.3515257,9.67576751 L58.3515257,55.2580197 L50.4017266,55.2580197 L50.4017266,9.67446191 L50.4017266,9.67446191 Z M84.2667433,55.2567141 L84.2667433,1.65680056 L95.6794975,1.65680056 C105.491016,1.65680056 110.04439,6.03576753 110.04439,17.470172 C110.04439,28.9006598 105.491016,33.2822379 95.6794975,33.2822379 L92.2187977,33.2822379 L92.2187977,55.2567141 L84.2667433,55.2567141 L84.2667433,55.2567141 Z M92.2187977,25.7097846 L95.296103,25.7097846 C100.489972,25.7097846 102.092336,23.8545336 102.092336,17.4688665 C102.092336,11.0845049 100.491099,9.22794829 95.296103,9.22794829 L92.2187977,9.22794829 L92.2187977,25.7097846 L92.2187977,25.7097846 Z" id="Shape" fill="#FFFFFF"></path>
                    <g transform="translate(31.427256, 0.000000)" fill="url(#linearGradient-1)">
                        <rect id="Rectangle-path" x="42.9603116" y="0.676298417" width="2.61272122" height="55.563529"></rect>
                        <rect id="Rectangle-path-2" x="0.100774178" y="0.676298417" width="2.61272122" height="55.563529"></rect>
                        <rect id="Rectangle-path" x="86.1068598" y="0.676298417" width="2.61159359" height="55.563529"></rect>
                    </g>
                </g>
            </g>
        </g>
    </g>
</svg>