<?xml version="1.0" encoding="UTF-8" standalone="no"?>
<svg width="40px" height="40px" viewBox="0 0 40 40" version="1.1" xmlns="http://www.w3.org/2000/svg" xmlns:xlink="http://www.w3.org/1999/xlink">
    <defs></defs>
    <g id="Welcome" stroke="none" stroke-width="1" fill="none" fill-rule="evenodd">
        <g id="twitter-icon" fill="#FFFFFF">
            <path d="M33.9423635,12.2401107 C32.9900644,12.6625495 31.9664529,12.948058 30.8923661,13.0763169 C31.9885843,12.4191036 32.8307439,11.3784082 33.227298,10.1382709 C32.2010979,10.7469503 31.064629,11.1888026 29.8549063,11.426942 C28.8862998,10.3947886 27.5061262,9.75 25.9786684,9.75 C23.0459288,9.75 20.6680284,12.1276416 20.6680284,15.0603812 C20.6680284,15.4766076 20.7150092,15.8819624 20.8056057,16.2706216 C16.3920009,16.0491778 12.4788773,13.9349132 9.85973116,10.7219715 C9.40260688,11.5062787 9.14065344,12.4185859 9.14065344,13.3918517 C9.14065344,15.2343265 10.0781983,16.859758 11.5031525,17.8120571 C10.6326491,17.7844899 9.81378577,17.5455738 9.09781422,17.147855 C9.09729653,17.1699864 9.09729653,17.1921179 9.09729653,17.2146376 C9.09729653,19.7875795 10.9278644,21.933941 13.3572755,22.4218681 C12.9116699,22.5432675 12.4425092,22.6082382 11.958206,22.6082382 C11.6160099,22.6082382 11.2832617,22.5748469 10.9590555,22.512853 C11.6347763,24.6225876 13.5959327,26.1580696 15.9198635,26.2007794 C14.1023674,27.625216 11.8126044,28.474235 9.32443501,28.474235 C8.89578392,28.474235 8.47308633,28.4489974 8.05763646,28.3999459 C10.4078403,29.9066958 13.1992492,30.786 16.1982537,30.786 C25.9662437,30.786 31.3079454,22.6939166 31.3079454,15.6761788 C31.3079454,15.4459342 31.3026391,15.2169838 31.2924146,14.9891982 C32.3301333,14.240353 33.2304041,13.3051378 33.9423635,12.2401107" id="Fill-1"></path>
        </g>
    </g>
</svg>